<?xml version="1.0" encoding="utf-8"?>
<!-- Generator: Adobe Illustrator 19.2.1, SVG Export Plug-In . SVG Version: 6.00 Build 0)  -->
<svg version="1.1" id="Layer_1" xmlns="http://www.w3.org/2000/svg" xmlns:xlink="http://www.w3.org/1999/xlink" x="0px" y="0px"
	 viewBox="0 0 36.6 175.4" style="enable-background:new 0 0 36.6 175.4;" xml:space="preserve">
<style type="text/css">
	.st0{fill:#D81920;}
</style>
<path d="M-247-6.7c0.7,6.4,1.4,12.8,2.1,19.2c0.2,1.5,0.4,2.9,0.6,4.4c0.1,0.5,0.2,1.2,0.1,1.4c-0.7,0.8-1.6,0-1.7,0.9
	c-0.2,2,1.1,5.7,1.5,7.5c4.1,24.2,10.4,47.6,17.7,70.5c2.6,8.2,5.3,16.4,8.1,24.9c-1.1,0.5-2.2,1-3.5,1.7
	c11.3,33.5,25.7,64.5,41,95.7c-22.8,0-45.2,0-67.5,0c0-75.4,0-150.8,0-226.2C-248.2-6.7-247.6-6.7-247-6.7z"/>
<path class="st0" d="M36.6,175.4c-3.9-11.2-7.8-22.4-11.6-33.6c-1.2-3.5-2.1-7.2-3.2-10.9c1.1-0.6,2-1.1,3-1.7
	c-1.7-6.1-3.3-11.9-4.9-17.7c-6.6-23.8-12.5-48-16.4-73.2c-0.5-3-1-6-1.3-9C2,28.2,2.5,27,2.7,26C2.8,25.5,3,25,3,24.6
	C2,16.4,1,8.2,0,0c12.2,0,24.4,0,36.6,0C36.6,58.5,36.6,116.9,36.6,175.4z"/>
</svg>
