<?xml version="1.0" encoding="utf-8"?>
<!-- Generator: Adobe Illustrator 19.2.1, SVG Export Plug-In . SVG Version: 6.00 Build 0)  -->
<svg version="1.1" id="Layer_1" xmlns="http://www.w3.org/2000/svg" xmlns:xlink="http://www.w3.org/1999/xlink" x="0px" y="0px"
	 viewBox="0 0 67.5 226.2" style="enable-background:new 0 0 67.5 226.2;" xml:space="preserve">
<style type="text/css">
	.st0{fill:#D81920;}
</style>
<path class="st0" d="M0.9,0C1.6,6.4,2.3,12.9,3,19.3c0.2,1.5,0.4,2.9,0.6,4.4c0.1,0.4,0.2,1.2,0.1,1.4C3,25.9,2.1,25.1,2,26
	c-0.2,2,1.1,5.7,1.5,7.5c4.1,24.3,10.3,47.8,17.6,70.8c2.6,8.2,5.3,16.5,8.1,25c-1.1,0.5-2.2,1-3.5,1.7c11.3,33.6,25.7,64.8,41,96.1
	c-22.8,0-45.2,0-67.5,0C-0.9,151.4-0.9,75.7-0.9,0C-0.3,0,0.3,0,0.9,0z"/>
<path class="st0" d="M285.4,182c-3.9-11.2-7.8-22.4-11.6-33.6c-1.2-3.5-2.1-7.2-3.2-10.9c1.1-0.6,2-1.1,3-1.7
	c-1.7-6.1-3.3-11.9-4.9-17.7c-6.6-23.8-12.5-48-16.4-73.2c-0.5-3-1-6-1.3-9c-0.1-1,0.4-2.1,0.6-3.2c0.1-0.4,0.3-0.9,0.2-1.3
	c-1-8.2-2-16.4-3-24.6c12.2,0,24.4,0,36.6,0C285.4,65.1,285.4,123.6,285.4,182z"/>
</svg>
